<mxfile host="65bd71144e">
    <diagram id="fX24mRgaAXTJd_tPDt_1" name="第1頁">
        <mxGraphModel dx="582" dy="496" grid="1" gridSize="10" guides="1" tooltips="1" connect="1" arrows="1" fold="1" page="1" pageScale="1" pageWidth="827" pageHeight="1169" math="0" shadow="0">
            <root>
                <mxCell id="0"/>
                <mxCell id="1" parent="0"/>
                <mxCell id="2" value="2" style="whiteSpace=wrap;html=1;aspect=fixed;fontSize=32;" parent="1" vertex="1">
                    <mxGeometry x="230" y="150" width="80" height="80" as="geometry"/>
                </mxCell>
                <mxCell id="3" value="3" style="whiteSpace=wrap;html=1;aspect=fixed;fontSize=32;" parent="1" vertex="1">
                    <mxGeometry x="310" y="150" width="80" height="80" as="geometry"/>
                </mxCell>
                <mxCell id="4" value="4" style="whiteSpace=wrap;html=1;aspect=fixed;fontSize=32;" parent="1" vertex="1">
                    <mxGeometry x="390" y="150" width="80" height="80" as="geometry"/>
                </mxCell>
                <mxCell id="5" value="5" style="whiteSpace=wrap;html=1;aspect=fixed;fontSize=31;" parent="1" vertex="1">
                    <mxGeometry x="470" y="150" width="80" height="80" as="geometry"/>
                </mxCell>
                <mxCell id="6" value="1" style="whiteSpace=wrap;html=1;aspect=fixed;fontSize=32;" parent="1" vertex="1">
                    <mxGeometry x="150" y="150" width="80" height="80" as="geometry"/>
                </mxCell>
            </root>
        </mxGraphModel>
    </diagram>
</mxfile>